<svg width="950" height="200" xmlns="http://www.w3.org/2000/svg">
 <!-- Created with Method Draw - http://github.com/duopixel/Method-Draw/ -->

 <g>
  <title>background</title>
  <rect fill="#fff" id="canvas_background" height="202" width="952" y="-1" x="-1"/>
  <g display="none" id="canvasGrid">
   <rect fill="url(#gridpattern)" stroke-width="0" y="0" x="0" height="100%" width="100%" id="svg_1"/>
  </g>
 </g>
 <g>
  <title>Layer 1</title>
  <path stroke="#0f0f00" id="svg_5" d="m97.767714,181.097614c-65.990461,-47.77939 -89.584683,-78.003769 -89.775902,-115.00388c-0.174377,-33.730135 28.951465,-66.284678 59.135276,-66.096939c15.072453,0.093931 47.403805,12.508474 58.852452,22.598379c5.768507,5.083877 8.500746,4.582549 21.343701,-3.916228c34.953097,-23.130037 69.085144,-23.615528 91.190568,-1.296984c35.329155,35.669733 28.897091,78.265913 -18.490001,122.449654c-25.193697,23.490642 -80.211215,65.164353 -86.029754,65.164353c-1.770496,0 -18.072336,-10.754279 -36.22634,-23.898366l0,0.00001l0,0z" stroke-opacity="null" stroke-width="0" fill="#4e2a84"/>
  <path stroke="#0f0f00" id="svg_6" d="m193.574871,73.653567c1.05978,-0.163513 8.757185,6.506709 8.902356,7.850823c0.211956,1.962672 5.087097,1.962672 6.358833,1.962672c1.271787,0 10.386099,4.252505 16.532976,8.83217c6.146928,4.579598 24.163596,0.327093 25.435332,0c1.271787,-0.327161 59.34916,-8.995705 75.034261,-2.944042c7.533108,2.906418 22.38158,-7.361964 24.322589,-28.704474c-0.794861,-14.229512 -17.378148,-14.763547 -20.825213,-10.426814c-2.543549,1.921805 -6.888749,1.349352 -5.828892,-2.167119c0.963696,-2.354807 7.418588,-9.609025 19.341444,-6.419646c10.107716,2.70383 15.954024,9.207138 18.122672,18.768243c1.430729,20.608314 -18.599624,35.819196 -18.599624,35.819196c0,0 1.589696,5.397455 3.815336,8.83217c2.225564,3.434715 2.861432,15.210882 2.543472,16.68288c-0.317909,1.472043 9.538301,9.568181 12.717692,9.813472c2.755505,0.98137 10.492128,19.136339 10.810037,23.061682c2.861508,1.104016 -0.317909,6.624094 -3.815285,7.360127c-3.497376,0.73601 -4.451204,-4.416085 -4.451204,-6.869453c0,-2.453345 -3.497376,-13.98422 -13.35356,-15.210859c-9.856209,-1.226707 -18.44058,-5.397455 -18.44058,-5.397455c0,0 -0.635945,2.453413 -1.907681,3.434761c0,0 3.179417,4.170703 3.179417,10.304123c-0.317909,2.698705 -5.40498,11.040179 -8.902356,11.776212c0,0 -5.722965,6.86943 -8.266488,6.86943c-2.543549,0 -6.994752,2.453368 -13.989453,-0.490674c0,0 1.271736,-6.13342 7.63062,-4.416085c0,0 14.943281,-8.832125 7.630569,-12.757514c0,0 -4.451153,-4.906736 -6.994701,-6.869453c-2.543523,-1.962672 -5.087072,-5.15205 -5.72294,-8.832125c0,0 -21.302088,-0.981347 -26.707145,-1.962717c-5.40498,-0.981302 -15.261164,1.472043 -15.261164,2.944042c0,1.472043 1.589696,15.456264 4.451153,18.154969c0,0 0.953828,3.434715 0,4.416085c-0.953828,0.981302 3.497376,9.077462 -5.087072,8.341429c-8.107521,1.104016 -12.081773,-3.802698 -2.543472,-5.397387c0.476876,-5.274764 -12.081849,-27.600413 -20.348337,-24.533726c-10.810011,1.226684 -7.153668,-6.010729 -17.804712,5.397432c-11.127996,10.058786 -30.204495,17.173553 -31.158272,21.589639c0,0 -5.72294,-0.98137 -6.994752,2.453368c0,0 -14.943281,1.472043 -13.989428,-0.490696c0.953828,-1.962672 1.748688,-6.010706 7.63062,-4.416017c0,0 13.35356,-4.048103 26.0712,-25.024422c0,0 -1.589721,-5.397387 0.635868,-9.813472c2.22564,-4.41604 -1.271736,-22.571008 -17.168844,-21.589639c0,0 -5.934921,1.635579 -9.538224,-5.888083c0,0 -1.483769,-1.472043 0,-2.944042c1.483692,-1.472043 5.087072,-3.761831 5.72294,-5.397387c0.635868,-1.635624 2.119637,-4.088992 10.174092,-6.378825c3.815336,-3.066665 -0.423836,-9.159218 0.635945,-9.322798l-0.000026,0z" stroke-opacity="null" stroke-width="0" fill="#ffffff"/>
  <text stroke="#0f0f00" transform="matrix(3.056587215878924,0,0,2.8724982189356694,-236.4858726043627,-249.84416165215288) " xml:space="preserve" text-anchor="start" font-family="'Palatino Linotype', 'Book Antiqua', Palatino, serif" font-size="61" id="svg_9" y="143.676041" x="152.979059" stroke-opacity="null" stroke-width="0" fill="#4e2a84">отейкин</text>
  <text stroke="#0f0f00" xml:space="preserve" text-anchor="start" font-family="'Palatino Linotype', 'Book Antiqua', Palatino, serif" font-size="200" id="svg_8" y="162.5" x="66.5" stroke-opacity="null" stroke-width="0" fill="#ffffff">К</text>
  <path stroke="#0f0f00" id="svg_10" d="m57.562895,87.721098c-0.6234,-0.112021 -5.151279,4.457348 -5.236679,5.37811c-0.12468,1.34451 -2.9924,1.34451 -3.740479,1.34451c-0.74812,0 -6.109479,2.913134 -9.725279,6.050383c-3.615839,3.137213 -14.213878,0.224079 -14.961958,0c-0.74812,-0.224115 -34.911275,-6.162404 -44.137793,-2.016782c-4.431239,1.991006 -13.165638,-5.043232 -14.307398,-19.663691c0.46756,-9.747775 10.222438,-10.113607 12.250118,-7.142772c1.4962,1.316504 4.052199,0.924357 3.428759,-1.484572c-0.56688,-1.613131 -4.363879,-6.582557 -11.377318,-4.397706c-5.945719,1.852237 -9.384719,6.307249 -10.660398,12.856983c-0.8416,14.117512 10.940958,24.53756 10.940958,24.53756c0,0 -0.93512,3.697464 -2.24432,6.050383c-1.30916,2.352919 -1.6832,10.420048 -1.49616,11.428421c0.187,1.008409 -5.610759,6.554588 -7.480999,6.72262c-1.62088,0.672273 -6.171839,13.109139 -6.358839,15.798158c-1.68324,0.756289 0.187,4.537769 2.24428,5.041974c2.05728,0.504205 2.61836,-3.025191 2.61836,-4.705837c0,-1.680646 2.05728,-9.579743 7.855039,-10.420048c5.797759,-0.840341 10.847398,-3.697464 10.847398,-3.697464c0,0 0.37408,1.680682 1.12216,2.352955c0,0 -1.87024,2.857087 -1.87024,7.05872c0.187,1.848714 3.1794,7.562961 5.236679,8.067165c0,0 3.366439,4.705837 4.862639,4.705837c1.4962,0 4.114559,1.680646 8.229079,-0.336136c0,0 -0.74808,-4.201633 -4.488599,-3.025191c0,0 -8.790159,-6.050347 -4.488559,-8.739402c0,0 2.61832,-3.361292 4.114519,-4.705837c1.4962,-1.34451 2.9924,-3.52936 3.366439,-6.050347c0,0 12.530638,-0.672273 15.710078,-1.344546c3.1794,-0.672237 8.977159,1.008409 8.977159,2.016782c0,1.008409 -0.93512,10.588152 -2.61832,12.436866c0,0 -0.56108,2.352919 0,3.025191c0.56108,0.672237 -2.05728,6.218415 2.9924,5.714211c4.769119,0.756289 7.106919,-2.605003 1.49616,-3.697428c-0.28052,-3.613412 7.106959,-18.907366 11.969598,-16.806567c6.358839,0.840341 4.208039,-4.117581 10.473358,3.697464c6.545879,6.890652 17.767357,11.764558 18.328397,14.789749c0,0 3.366439,-0.672273 4.114559,1.680646c0,0 8.790159,1.008409 8.229079,-0.336136c-0.56108,-1.34451 -1.02864,-4.117581 -4.488599,-3.025156c0,0 -7.855039,-2.773107 -15.335998,-17.142704c0,0 0.93512,-3.697428 -0.37404,-6.72262c-1.3092,-3.025156 0.74808,-15.462022 10.099318,-14.789749c0,0 3.491119,1.120431 5.610719,-4.033565c0,0 0.8728,-1.008409 0,-2.016782c-0.87276,-1.008409 -2.9924,-2.576998 -3.366439,-3.697428c-0.37404,-1.120467 -1.24684,-2.801113 -5.984759,-4.369737c-2.24432,-2.100798 0.24932,-6.274426 -0.37408,-6.386483z" stroke-opacity="null" stroke-width="0" fill="#ffffff"/>
  <path stroke="#0f0f00" id="svg_11" d="m542.941903,40.219856c0.410405,-0.073393 3.391259,2.920331 3.447481,3.523589c0.082081,0.880886 1.969997,0.880886 2.462483,0.880886c0.492512,0 4.022074,1.908605 6.402476,3.964044c2.380428,2.055415 9.357471,0.14681 9.849957,0c0.492512,-0.146834 22.98326,-4.037437 29.057385,-1.32134c2.917233,1.304452 8.66738,-3.304186 9.419038,-12.883107c-0.30781,-6.386473 -6.729773,-6.626156 -8.064662,-4.679747c-0.984998,0.862537 -2.667698,0.605613 -2.257267,-0.972651c0.373196,-1.056879 2.872888,-4.31271 7.490069,-2.881256c3.914266,1.213535 6.178274,4.132335 7.018097,8.42354c0.554053,9.249404 -7.202799,16.076332 -7.202799,16.076332c0,0 0.615621,2.422476 1.477511,3.964044c0.861864,1.541567 1.108107,6.826928 0.984972,7.487586c-0.123108,0.660682 3.69375,4.294385 4.924992,4.404475c1.067079,0.440455 4.063128,8.588746 4.186236,10.350517c1.108133,0.4955 -0.123108,2.973021 -1.477484,3.303362c-1.354376,0.330341 -1.723754,-1.982022 -1.723754,-3.083135c0,-1.101113 -1.354376,-6.276383 -5.171235,-6.826928c-3.816859,-0.550568 -7.141205,-2.422476 -7.141205,-2.422476c0,0 -0.246269,1.101136 -0.738755,1.541591c0,0 1.231241,1.871885 1.231241,4.624679c-0.123108,1.211226 -2.093105,4.955043 -3.447481,5.285384c0,0 -2.21624,3.083135 -3.201238,3.083135c-0.984998,0 -2.708752,1.101113 -5.417478,-0.220227c0,0 0.492486,-2.752794 2.954995,-1.982022c0,0 5.786855,-3.96402 2.954969,-5.725815c0,0 -1.723727,-2.202226 -2.708726,-3.083135c-0.984998,-0.880886 -1.969997,-2.312339 -2.21624,-3.96402c0,0 -8.249338,-0.440455 -10.342469,-0.880909c-2.093105,-0.440431 -5.909964,0.660682 -5.909964,1.32134c0,0.660682 0.615621,6.937065 1.723727,8.148291c0,0 0.369378,1.541567 0,1.982022c-0.369378,0.440431 1.354376,4.074134 -1.969997,3.743793c-3.139671,0.4955 -4.678722,-1.706726 -0.984972,-2.422453c0.184676,-2.367408 -4.678749,-12.387584 -7.879987,-11.011199c-4.186236,0.550568 -2.770293,-2.697725 -6.894962,2.422476c-4.309371,4.514565 -11.696845,7.707813 -12.066197,9.689835c0,0 -2.21624,-0.440455 -2.708752,1.101113c0,0 -5.786855,0.660682 -5.417478,-0.220227c0.369378,-0.880886 0.677188,-2.697725 2.954995,-1.981998c0,0 5.171235,-1.816863 10.0962,-11.231426c0,0 -0.615621,-2.422453 0.246243,-4.404475c0.86189,-1.981998 -0.492486,-10.13029 -6.648719,-9.689835c0,0 -2.298321,0.734075 -3.693724,-2.64268c0,0 -0.574593,-0.660682 0,-1.32134c0.574567,-0.660682 1.969997,-1.688378 2.21624,-2.422453c0.246243,-0.734099 0.820836,-1.835212 3.939967,-2.862931c1.477511,-1.376385 -0.164136,-4.110831 0.246269,-4.184248z" fill-opacity="null" stroke-opacity="null" stroke-width="0" fill="#4e2a84"/>
 </g>
</svg>